<svg width="256" height="256" viewBox="0 0 256 256" fill="none" xmlns="http://www.w3.org/2000/svg">
<rect width="256" height="256" fill="white"/>
<path d="M161.776 74.6667C172.229 74.6667 180.763 82.864 181.307 93.184L181.333 94.224V161.776C181.333 172.229 173.136 180.763 162.816 181.307L161.776 181.333H94.224C89.2169 181.334 84.4005 179.413 80.767 175.968C77.1334 172.523 74.9596 167.816 74.6933 162.816L74.6667 161.776V94.224C74.6667 83.7707 82.864 75.2373 93.184 74.6933L94.224 74.6667H161.776ZM146.667 138.667C144.545 138.667 142.51 139.51 141.01 141.01C139.51 142.51 138.667 144.545 138.667 146.667C138.667 148.788 139.51 150.823 141.01 152.324C142.51 153.824 144.545 154.667 146.667 154.667C148.788 154.667 150.823 153.824 152.324 152.324C153.824 150.823 154.667 148.788 154.667 146.667C154.667 144.545 153.824 142.51 152.324 141.01C150.823 139.51 148.788 138.667 146.667 138.667ZM109.333 138.667C107.212 138.667 105.177 139.51 103.676 141.01C102.176 142.51 101.333 144.545 101.333 146.667C101.333 148.788 102.176 150.823 103.676 152.324C105.177 153.824 107.212 154.667 109.333 154.667C111.455 154.667 113.49 153.824 114.99 152.324C116.49 150.823 117.333 148.788 117.333 146.667C117.333 144.545 116.49 142.51 114.99 141.01C113.49 139.51 111.455 138.667 109.333 138.667ZM109.333 101.333C107.212 101.333 105.177 102.176 103.676 103.676C102.176 105.177 101.333 107.212 101.333 109.333C101.333 111.455 102.176 113.49 103.676 114.99C105.177 116.49 107.212 117.333 109.333 117.333C111.455 117.333 113.49 116.49 114.99 114.99C116.49 113.49 117.333 111.455 117.333 109.333C117.333 107.212 116.49 105.177 114.99 103.676C113.49 102.176 111.455 101.333 109.333 101.333ZM146.667 101.333C144.545 101.333 142.51 102.176 141.01 103.676C139.51 105.177 138.667 107.212 138.667 109.333C138.667 111.455 139.51 113.49 141.01 114.99C142.51 116.49 144.545 117.333 146.667 117.333C148.788 117.333 150.823 116.49 152.324 114.99C153.824 113.49 154.667 111.455 154.667 109.333C154.667 107.212 153.824 105.177 152.324 103.676C150.823 102.176 148.788 101.333 146.667 101.333Z" fill="black"/>
</svg>
