<svg width="256" height="256" viewBox="0 0 256 256" fill="none" xmlns="http://www.w3.org/2000/svg">
<rect width="256" height="256" fill="black"/>
<path d="M178.664 48C194.344 48 207.144 60.296 207.96 75.776L208 77.336V178.664C208 194.344 195.704 207.144 180.224 207.96L178.664 208H77.336C69.8254 208 62.6007 205.12 57.1504 199.953C51.7001 194.785 48.4394 187.724 48.04 180.224L48 178.664V77.336C48 61.656 60.296 48.856 75.776 48.04L77.336 48H178.664ZM156 144C152.817 144 149.765 145.264 147.515 147.515C145.264 149.765 144 152.817 144 156C144 159.183 145.264 162.235 147.515 164.485C149.765 166.736 152.817 168 156 168C159.183 168 162.235 166.736 164.485 164.485C166.736 162.235 168 159.183 168 156C168 152.817 166.736 149.765 164.485 147.515C162.235 145.264 159.183 144 156 144ZM100 144C96.8174 144 93.7652 145.264 91.5147 147.515C89.2643 149.765 88 152.817 88 156C88 159.183 89.2643 162.235 91.5147 164.485C93.7652 166.736 96.8174 168 100 168C103.183 168 106.235 166.736 108.485 164.485C110.736 162.235 112 159.183 112 156C112 152.817 110.736 149.765 108.485 147.515C106.235 145.264 103.183 144 100 144ZM100 88C96.8174 88 93.7652 89.2643 91.5147 91.5147C89.2643 93.7652 88 96.8174 88 100C88 103.183 89.2643 106.235 91.5147 108.485C93.7652 110.736 96.8174 112 100 112C103.183 112 106.235 110.736 108.485 108.485C110.736 106.235 112 103.183 112 100C112 96.8174 110.736 93.7652 108.485 91.5147C106.235 89.2643 103.183 88 100 88ZM156 88C152.817 88 149.765 89.2643 147.515 91.5147C145.264 93.7652 144 96.8174 144 100C144 103.183 145.264 106.235 147.515 108.485C149.765 110.736 152.817 112 156 112C159.183 112 162.235 110.736 164.485 108.485C166.736 106.235 168 103.183 168 100C168 96.8174 166.736 93.7652 164.485 91.5147C162.235 89.2643 159.183 88 156 88Z" fill="white"/>
</svg>
