<svg width="256" height="256" viewBox="0 0 256 256" fill="none" xmlns="http://www.w3.org/2000/svg">
<rect width="256" height="256" fill="black"/>
<path d="M99.9222 63.9999H69.0379C67.6696 63.9999 66.6661 63.9999 64.0004 64C64.0004 64 64 67.5961 64 68.937V109.173L99.9222 63.9999Z" fill="white"/>
<path d="M64 146.358L129.492 63.9999H185.096C186.465 63.9999 192 64.0001 192 64.0001C192 64.0001 192 67.9923 192 69.3332V90.6665L184.103 99.657H112.513V111.177H174.834C174.87 111.177 174.906 111.177 174.942 111.178L148.187 144.823H112.513V156.343H139.026L110.671 192H69.0379C67.6696 192 64.0004 192 64.0004 192C64.0004 192 64 188.404 64 187.063V146.358Z" fill="white"/>
<path d="M140.241 192H186.962C188.33 192 192 192 192 192C192 189.333 192 188.404 192 187.063V161.28C192 159.939 192 154.667 192 154.667C192 154.667 188.035 154.667 186.667 154.667H170.667L140.241 192Z" fill="white"/>
</svg>
