<svg width="256" height="256" viewBox="0 0 256 256" fill="none" xmlns="http://www.w3.org/2000/svg">
<rect width="256" height="256" fill="black"/>
<path d="M186.962 157.227C188.33 157.227 189.512 157.725 190.507 158.72C191.502 159.715 192 160.897 192 162.265V188.574C192 189.943 191.502 191.124 190.507 192.12C189.512 193.115 188.33 193.612 186.962 193.612H69.0379C67.6696 193.612 66.4879 193.115 65.4927 192.12C64.4976 191.124 64 189.943 64 188.574V68.0379C64 66.6696 64.4976 65.4879 65.4927 64.4927C66.4879 63.4976 67.6696 63 69.0379 63H185.096C186.465 63 187.646 63.4976 188.641 64.4927C189.637 65.4879 190.134 66.6696 190.134 68.0379V94.3469C190.134 95.7153 189.637 96.897 188.641 97.8921C187.646 98.8873 186.465 99.3849 185.096 99.3849H112.513V111.14H174.834C176.202 111.14 177.384 111.638 178.379 112.633C179.374 113.628 179.872 114.81 179.872 116.178V140.434C179.872 141.803 179.374 142.984 178.379 143.98C177.384 144.975 176.202 145.472 174.834 145.472H112.513V157.227H186.962Z" fill="white"/>
</svg>
