<svg width="256" height="256" viewBox="0 0 256 256" fill="none" xmlns="http://www.w3.org/2000/svg">
<rect width="256" height="256" fill="black"/>
<path d="M168 58.72C180.162 65.7415 190.261 75.8406 197.282 88.0022C204.304 100.164 208 113.96 208 128.003C208 142.046 204.303 155.841 197.282 168.003C190.26 180.164 180.161 190.263 167.999 197.285C155.837 204.306 142.042 208.002 127.999 208.002C113.956 208.002 100.16 204.305 87.9987 197.283C75.8372 190.262 65.7383 180.162 58.7171 168C51.6958 155.839 47.9996 142.043 48 128L48.04 125.408C48.488 111.592 52.5084 98.1277 59.7091 86.3279C66.9099 74.5282 77.0452 64.7956 89.1271 58.0791C101.209 51.3625 114.825 47.8912 128.648 48.0035C142.471 48.1158 156.029 51.808 168 58.72ZM128 176C125.878 176 123.843 176.843 122.343 178.343C120.843 179.843 120 181.878 120 184C120 186.122 120.843 188.157 122.343 189.657C123.843 191.157 125.878 192 128 192C130.122 192 132.157 191.157 133.657 189.657C135.157 188.157 136 186.122 136 184C136 181.878 135.157 179.843 133.657 178.343C132.157 176.843 130.122 176 128 176ZM157.472 88.408L109.472 104.408C108.292 104.801 107.221 105.463 106.342 106.342C105.463 107.221 104.801 108.292 104.408 109.472L88.352 157.68L88.168 158.368L88.032 159.272L88 159.816V160.168L88.072 161.056L88.168 161.616L88.488 162.768L88.848 163.568L89.28 164.328L89.792 165.048L90.344 165.648L91.016 166.24L91.8 166.8L92.6 167.232L93.224 167.496L94.064 167.76L94.936 167.92L95.28 167.96L95.824 167.992H96.176L97.064 167.92L97.624 167.824L97.784 167.776L97.936 167.76L98.528 167.584L146.528 151.584C147.708 151.191 148.779 150.529 149.658 149.65C150.537 148.771 151.199 147.699 151.592 146.52L167.592 98.52C168.062 97.1104 168.13 95.5978 167.789 94.1516C167.448 92.7055 166.71 91.3829 165.66 90.3323C164.609 89.2816 163.287 88.5443 161.84 88.203C160.394 87.8617 158.882 87.9379 157.472 88.408ZM147.352 108.64L137.672 137.672L108.64 147.352L118.32 118.32L147.352 108.64ZM72 120C69.8783 120 67.8434 120.843 66.3431 122.343C64.8429 123.843 64 125.878 64 128C64 130.122 64.8429 132.157 66.3431 133.657C67.8434 135.157 69.8783 136 72 136C74.1217 136 76.1566 135.157 77.6569 133.657C79.1571 132.157 80 130.122 80 128C80 125.878 79.1571 123.843 77.6569 122.343C76.1566 120.843 74.1217 120 72 120ZM184 120C181.878 120 179.843 120.843 178.343 122.343C176.843 123.843 176 125.878 176 128C176 130.122 176.843 132.157 178.343 133.657C179.843 135.157 181.878 136 184 136C186.122 136 188.157 135.157 189.657 133.657C191.157 132.157 192 130.122 192 128C192 125.878 191.157 123.843 189.657 122.343C188.157 120.843 186.122 120 184 120ZM128 64C125.878 64 123.843 64.8429 122.343 66.3431C120.843 67.8434 120 69.8783 120 72C120 74.1217 120.843 76.1566 122.343 77.6568C123.843 79.1571 125.878 80 128 80C130.122 80 132.157 79.1571 133.657 77.6568C135.157 76.1566 136 74.1217 136 72C136 69.8783 135.157 67.8434 133.657 66.3431C132.157 64.8429 130.122 64 128 64Z" fill="white"/>
</svg>
