<svg width="256" height="256" viewBox="0 0 256 256" fill="none" xmlns="http://www.w3.org/2000/svg">
<rect width="256" height="256" fill="black"/>
<path fill-rule="evenodd" clip-rule="evenodd" d="M88 56C92.4183 56 96 59.5817 96 64V80H112C116.418 80 120 83.5817 120 88C120 92.4183 116.418 96 112 96H96V112C96 116.418 92.4183 120 88 120C83.5817 120 80 116.418 80 112V96H64C59.5817 96 56 92.4183 56 88C56 83.5817 59.5817 80 64 80H80V64C80 59.5817 83.5817 56 88 56ZM189.657 66.3431C192.781 69.4673 192.781 74.5327 189.657 77.6569L77.6569 189.657C74.5327 192.781 69.4673 192.781 66.3431 189.657C63.219 186.533 63.219 181.467 66.3431 178.343L178.343 66.3431C181.467 63.219 186.533 63.219 189.657 66.3431ZM136 176C136 171.582 139.582 168 144 168H192C196.418 168 200 171.582 200 176C200 180.418 196.418 184 192 184H144C139.582 184 136 180.418 136 176Z" fill="white"/>
</svg>
