<svg width="256" height="256" viewBox="0 0 256 256" fill="none" xmlns="http://www.w3.org/2000/svg">
<rect width="256" height="256" fill="white"/>
<path fill-rule="evenodd" clip-rule="evenodd" d="M101.333 80C104.279 80 106.667 82.3878 106.667 85.3333V96H117.333C120.279 96 122.667 98.3878 122.667 101.333C122.667 104.279 120.279 106.667 117.333 106.667H106.667V117.333C106.667 120.279 104.279 122.667 101.333 122.667C98.3878 122.667 96 120.279 96 117.333V106.667H85.3333C82.3878 106.667 80 104.279 80 101.333C80 98.3878 82.3878 96 85.3333 96H96V85.3333C96 82.3878 98.3878 80 101.333 80ZM169.105 86.8954C171.187 88.9782 171.187 92.3551 169.105 94.4379L94.4379 169.105C92.3551 171.187 88.9782 171.187 86.8954 169.105C84.8126 167.022 84.8126 163.645 86.8954 161.562L161.562 86.8954C163.645 84.8126 167.022 84.8126 169.105 86.8954ZM133.333 160C133.333 157.054 135.721 154.667 138.667 154.667H170.667C173.612 154.667 176 157.054 176 160C176 162.946 173.612 165.333 170.667 165.333H138.667C135.721 165.333 133.333 162.946 133.333 160Z" fill="black"/>
</svg>
